<svg id="Layer_1" data-name="Layer 1" xmlns="http://www.w3.org/2000/svg" viewBox="0 0 59.82 59.76"><defs><style>.cls-1{fill:#00aeef;}.cls-2{fill:#ef3c24;}</style></defs><title>favicon</title><polygon class="cls-1" points="0 0 0 21.88 15.37 23 15.37 15.76 28.2 17.39 28.2 47.43 23.76 47.96 23.76 59.76 42.7 55.74 42.7 45.71 39.34 46.11 39.34 41.74 33.71 40.78 33.71 28.73 39.34 27.83 39.34 18.79 53.66 20.61 53.66 25.85 59.82 26.25 59.82 13.06 0 0"/><path class="cls-2" d="M273.54,41.76l2.71-.51v8.56l-2.71-.46V41.76Z" transform="translate(-249.25 -10.86)"/><path class="cls-2" d="M284.09,40.38l14-2.64V53.32l-14-2.39V40.38Z" transform="translate(-249.25 -10.86)"/></svg>