<svg class="footer-logo" data-name="Layer 1" xmlns="http://www.w3.org/2000/svg" viewBox="0 0 182.33 16.26"><defs><style>.cls-1{fill:#fff;}.cls-2{fill:#ef3c24;}</style></defs><title>logos</title><path class="cls-1" d="M47.14,337.65H43V321.95h9.28v3.41h-5.1v3h4.71v3.41H47.14v5.9Z" transform="translate(-42.96 -321.7)"/><path class="cls-1" d="M63.4,337.65l-0.77-2.94h-5.1l-0.79,2.94H52.06l5.12-15.77h5.66L68,337.65H63.4Zm-1.65-6.42-0.68-2.58q-0.24-.86-0.57-2.22t-0.45-2q-0.1.55-.38,1.8t-1.26,5h3.34Z" transform="translate(-42.96 -321.7)"/><path class="cls-1" d="M72.92,331.94v5.71H68.68V321.95h5.15q6.4,0,6.4,4.64a4.64,4.64,0,0,1-2.66,4.22l4.58,6.84H77.33L74,331.94H72.92Zm0-3.19h0.79q2.22,0,2.22-2,0-1.62-2.18-1.62H72.92v3.59Z" transform="translate(-42.96 -321.7)"/><path class="cls-1" d="M82.51,337.65V321.95h4.24v12.28h6v3.43H82.51Z" transform="translate(-42.96 -321.7)"/><path class="cls-1" d="M109,329.78a8.47,8.47,0,0,1-1.94,6,7.45,7.45,0,0,1-5.69,2.06,7.45,7.45,0,0,1-5.67-2.07,10.18,10.18,0,0,1,0-12,7.48,7.48,0,0,1,5.7-2.07,7.44,7.44,0,0,1,5.68,2.05Q109,325.8,109,329.78Zm-10.81,0q0,4.55,3.17,4.55a2.73,2.73,0,0,0,2.39-1.11,8,8,0,0,0,0-6.92,2.69,2.69,0,0,0-2.36-1.12Q98.15,325.18,98.15,329.78Z" transform="translate(-42.96 -321.7)"/><path class="cls-1" d="M127.7,337.65h-5l-1.5-6.84q-0.11-.43-0.34-1.71T120.5,327q-0.09.7-.28,1.73t-0.38,1.91q-0.19.87-1.56,7h-5l-3.89-15.71h4.09l1.71,7.87q0.58,2.61.79,4.16,0.14-1.1.5-3t0.67-3.12l1.39-5.94h3.93l1.34,5.94q0.34,1.43.7,3.3T125,334q0.14-1.19.76-4.14l1.74-7.9h4.09Z" transform="translate(-42.96 -321.7)"/><path class="cls-1" d="M153.18,329.74a7.93,7.93,0,0,1-2.11,5.95,8.35,8.35,0,0,1-6.07,2.06h-4.35V322h4.81A7,7,0,0,1,153.18,329.74Zm-1.93.06a6.33,6.33,0,0,0-1.54-4.63,6.18,6.18,0,0,0-4.58-1.56h-2.65v12.55h2.22a6.76,6.76,0,0,0,4.91-1.61A6.36,6.36,0,0,0,151.25,329.8Z" transform="translate(-42.96 -321.7)"/><path class="cls-1" d="M164.89,337.74h-8.75V322h8.75v1.62H158v5.06h6.51v1.61H158v5.78h6.93v1.63Z" transform="translate(-42.96 -321.7)"/><path class="cls-1" d="M176.68,333.56a3.85,3.85,0,0,1-1.5,3.23,6.52,6.52,0,0,1-4.08,1.16,10.21,10.21,0,0,1-4.3-.72v-1.76a11.27,11.27,0,0,0,2.11.64,11,11,0,0,0,2.26.24,4.55,4.55,0,0,0,2.75-.69,2.27,2.27,0,0,0,.92-1.93,2.47,2.47,0,0,0-.33-1.34,3,3,0,0,0-1.1-1,15.42,15.42,0,0,0-2.34-1,7.44,7.44,0,0,1-3.13-1.86,4.1,4.1,0,0,1-.94-2.8,3.49,3.49,0,0,1,1.36-2.89,5.67,5.67,0,0,1,3.61-1.07,10.65,10.65,0,0,1,4.31.86l-0.57,1.59a9.74,9.74,0,0,0-3.78-.82,3.66,3.66,0,0,0-2.27.62,2.06,2.06,0,0,0-.82,1.73,2.66,2.66,0,0,0,.3,1.34,2.83,2.83,0,0,0,1,1,12.6,12.6,0,0,0,2.19,1,8.66,8.66,0,0,1,3.4,1.89A3.72,3.72,0,0,1,176.68,333.56Z" transform="translate(-42.96 -321.7)"/><path class="cls-1" d="M179.34,337.74V322h1.83v15.71h-1.83Z" transform="translate(-42.96 -321.7)"/><path class="cls-1" d="M191.83,329.51h5.34v7.64a17.05,17.05,0,0,1-2.54.6,19.34,19.34,0,0,1-3,.2,7.24,7.24,0,0,1-5.55-2.12,8.36,8.36,0,0,1-2-5.95,9,9,0,0,1,1-4.29,6.64,6.64,0,0,1,2.83-2.81,9.16,9.16,0,0,1,4.33-1,11.84,11.84,0,0,1,4.68.92l-0.71,1.61a10.46,10.46,0,0,0-4.09-.9,5.86,5.86,0,0,0-4.48,1.71,6.63,6.63,0,0,0-1.61,4.74,6.78,6.78,0,0,0,1.55,4.82,6,6,0,0,0,4.56,1.64,13.53,13.53,0,0,0,3.19-.38v-4.83h-3.51v-1.63Z" transform="translate(-42.96 -321.7)"/><path class="cls-1" d="M212.66,337.74h-2.08L202,324.56h-0.09q0.17,2.32.17,4.25v8.93h-1.69V322h2.06L211,335.16h0.09q0-.29-0.1-1.86T211,331v-9h1.71v15.71Z" transform="translate(-42.96 -321.7)"/><path class="cls-1" d="M225.29,333.56a3.85,3.85,0,0,1-1.5,3.23A6.52,6.52,0,0,1,219.7,338a10.21,10.21,0,0,1-4.3-.72v-1.76a11.27,11.27,0,0,0,2.11.64,11,11,0,0,0,2.26.24,4.55,4.55,0,0,0,2.75-.69,2.27,2.27,0,0,0,.92-1.93,2.47,2.47,0,0,0-.33-1.34,3,3,0,0,0-1.1-1,15.42,15.42,0,0,0-2.34-1,7.44,7.44,0,0,1-3.13-1.86,4.1,4.1,0,0,1-.94-2.8,3.49,3.49,0,0,1,1.36-2.89,5.67,5.67,0,0,1,3.61-1.07,10.65,10.65,0,0,1,4.31.86l-0.57,1.59a9.74,9.74,0,0,0-3.78-.82,3.66,3.66,0,0,0-2.27.62,2.06,2.06,0,0,0-.82,1.73,2.66,2.66,0,0,0,.3,1.34,2.83,2.83,0,0,0,1,1,12.6,12.6,0,0,0,2.19,1,8.66,8.66,0,0,1,3.4,1.89A3.72,3.72,0,0,1,225.29,333.56Z" transform="translate(-42.96 -321.7)"/><path class="cls-2" d="M134.57,323.73H137V334h-2.46" transform="translate(-42.96 -321.7)"/></svg>
