<svg class="header-logo" id="Layer_1" data-name="Layer 1" xmlns="http://www.w3.org/2000/svg" viewBox="0 0 205.5 63.02"><defs><style>.cls-1{fill:#fff;}.cls-2{fill:#00aeef;}.cls-3{fill:#ef3c24;}</style></defs><title>header-logo</title><path class="cls-1" d="M32.27,281H28.09V265.26h9.28v3.41h-5.1v3H37v3.41H32.27V281Z" transform="translate(-28.09 -235.21)"/><path class="cls-1" d="M48.53,281L47.76,278h-5.1L41.86,281H37.2l5.12-15.77H48L53.17,281H48.53Zm-1.65-6.42L46.2,272q-0.24-.86-0.57-2.22t-0.45-2q-0.1.55-.38,1.8t-1.26,5h3.34Z" transform="translate(-28.09 -235.21)"/><path class="cls-1" d="M58.06,275.25V281H53.82V265.26H59q6.4,0,6.4,4.64a4.64,4.64,0,0,1-2.66,4.22L67.28,281H62.46l-3.33-5.71H58.06Zm0-3.19h0.79q2.22,0,2.22-2,0-1.62-2.18-1.62H58.06v3.59Z" transform="translate(-28.09 -235.21)"/><path class="cls-1" d="M67.65,281V265.26h4.24v12.28h6V281H67.65Z" transform="translate(-28.09 -235.21)"/><path class="cls-1" d="M94.09,273.09a8.47,8.47,0,0,1-1.94,6,7.45,7.45,0,0,1-5.69,2.06,7.45,7.45,0,0,1-5.67-2.07,10.18,10.18,0,0,1,0-12,7.48,7.48,0,0,1,5.7-2.07,7.44,7.44,0,0,1,5.68,2.05Q94.09,269.12,94.09,273.09Zm-10.81,0q0,4.55,3.17,4.55a2.72,2.72,0,0,0,2.39-1.11,8,8,0,0,0,0-6.92,2.69,2.69,0,0,0-2.36-1.12Q83.29,268.49,83.29,273.09Z" transform="translate(-28.09 -235.21)"/><path class="cls-1" d="M112.83,281h-5l-1.5-6.84q-0.11-.43-0.34-1.71t-0.34-2.14q-0.09.7-.28,1.73T105,273.92q-0.19.87-1.56,7h-5l-3.89-15.71H98.6l1.71,7.87q0.58,2.61.79,4.16,0.14-1.1.5-3t0.67-3.12l1.39-5.94h3.93l1.34,5.94q0.34,1.43.7,3.3t0.47,2.79q0.14-1.19.76-4.14l1.74-7.9h4.09Z" transform="translate(-28.09 -235.21)"/><path class="cls-1" d="M161.48,273.05a7.92,7.92,0,0,1-2.11,5.95,8.35,8.35,0,0,1-6.07,2.06h-4.35V265.35h4.81A7,7,0,0,1,161.48,273.05Zm-1.93.06a6.32,6.32,0,0,0-1.54-4.63,6.18,6.18,0,0,0-4.58-1.56h-2.65v12.55H153a6.76,6.76,0,0,0,4.91-1.61A6.36,6.36,0,0,0,159.55,273.12Z" transform="translate(-28.09 -235.21)"/><path class="cls-1" d="M173.19,281.06h-8.75V265.35h8.75V267h-6.93V272h6.51v1.61h-6.51v5.78h6.93v1.63Z" transform="translate(-28.09 -235.21)"/><path class="cls-1" d="M185,276.88a3.85,3.85,0,0,1-1.5,3.23,6.52,6.52,0,0,1-4.08,1.16,10.22,10.22,0,0,1-4.3-.72v-1.76a11.27,11.27,0,0,0,2.11.64,11.06,11.06,0,0,0,2.26.24,4.55,4.55,0,0,0,2.75-.69,2.27,2.27,0,0,0,.92-1.93,2.47,2.47,0,0,0-.33-1.34,3,3,0,0,0-1.1-1,15.32,15.32,0,0,0-2.34-1,7.45,7.45,0,0,1-3.13-1.86,4.1,4.1,0,0,1-.94-2.8,3.49,3.49,0,0,1,1.36-2.89,5.67,5.67,0,0,1,3.61-1.07,10.64,10.64,0,0,1,4.31.86L184,267.58a9.74,9.74,0,0,0-3.78-.82,3.66,3.66,0,0,0-2.27.62,2.05,2.05,0,0,0-.82,1.73,2.65,2.65,0,0,0,.3,1.34,2.83,2.83,0,0,0,1,1,12.6,12.6,0,0,0,2.19,1,8.65,8.65,0,0,1,3.4,1.89A3.72,3.72,0,0,1,185,276.88Z" transform="translate(-28.09 -235.21)"/><path class="cls-1" d="M187.64,281.06V265.35h1.83v15.71h-1.83Z" transform="translate(-28.09 -235.21)"/><path class="cls-1" d="M200.14,272.83h5.34v7.64a17.11,17.11,0,0,1-2.54.6,19.34,19.34,0,0,1-3,.2,7.24,7.24,0,0,1-5.55-2.12,8.36,8.36,0,0,1-2-5.95,9,9,0,0,1,1-4.29,6.65,6.65,0,0,1,2.83-2.81,9.17,9.17,0,0,1,4.33-1,11.83,11.83,0,0,1,4.68.92l-0.71,1.61a10.46,10.46,0,0,0-4.09-.9,5.86,5.86,0,0,0-4.48,1.71,6.63,6.63,0,0,0-1.61,4.74A6.78,6.78,0,0,0,195.9,278a6,6,0,0,0,4.56,1.64,13.53,13.53,0,0,0,3.19-.38v-4.83h-3.51v-1.63Z" transform="translate(-28.09 -235.21)"/><path class="cls-1" d="M221,281.06h-2.08l-8.58-13.18h-0.09q0.17,2.32.17,4.25v8.93h-1.69V265.35h2.06l8.56,13.13h0.09q0-.29-0.1-1.86t-0.05-2.25v-9H221v15.71Z" transform="translate(-28.09 -235.21)"/><path class="cls-1" d="M233.59,276.88a3.85,3.85,0,0,1-1.5,3.23,6.52,6.52,0,0,1-4.08,1.16,10.22,10.22,0,0,1-4.3-.72v-1.76a11.27,11.27,0,0,0,2.11.64,11.06,11.06,0,0,0,2.26.24,4.55,4.55,0,0,0,2.75-.69,2.27,2.27,0,0,0,.92-1.93,2.47,2.47,0,0,0-.33-1.34,3,3,0,0,0-1.1-1,15.32,15.32,0,0,0-2.34-1,7.45,7.45,0,0,1-3.13-1.86,4.1,4.1,0,0,1-.94-2.8,3.49,3.49,0,0,1,1.36-2.89,5.67,5.67,0,0,1,3.61-1.07,10.64,10.64,0,0,1,4.31.86l-0.57,1.59a9.74,9.74,0,0,0-3.78-.82,3.66,3.66,0,0,0-2.27.62,2.05,2.05,0,0,0-.82,1.73,2.65,2.65,0,0,0,.3,1.34,2.83,2.83,0,0,0,1,1,12.6,12.6,0,0,0,2.19,1,8.65,8.65,0,0,1,3.4,1.89A3.72,3.72,0,0,1,233.59,276.88Z" transform="translate(-28.09 -235.21)"/><polygon class="cls-2" points="66.41 0 66.41 22.13 81.78 23.55 81.78 15.92 96.35 18.07 96.35 50.69 91.91 51.22 91.91 63.02 110.85 59 110.85 48.97 107.49 49.37 107.49 45.09 101.86 44.15 101.86 31.87 107.49 30.95 107.49 19.72 120.97 21.71 120.81 27.14 129.02 27.89 129.02 14.86 66.41 0"/><path class="cls-3" d="M120.54,269.38l2.71-.44v8.48l-2.71-.45v-7.58Z" transform="translate(-28.09 -235.21)"/><path class="cls-3" d="M131.08,267.65l14-2.3v15.71l-14-2.34V267.65Z" transform="translate(-28.09 -235.21)"/></svg>
